<svg viewBox="20 84 314.515 51.78" fill="none" xmlns="http://www.w3.org/2000/svg">
<path d="M93.5181 102.16H94.8781V115H93.5181V102.16ZM101.616 115.22C98.7364 115.22 97.0164 113.42 97.0164 110.38C97.0164 107.32 98.8364 105.48 101.576 105.48C104.316 105.48 105.716 107.2 105.716 109.76C105.716 110 105.736 110.36 105.676 110.74H98.3964C98.4964 112.82 99.6164 114.04 101.616 114.04C103.456 114.04 104.116 113.08 104.436 111.9L105.656 112.26C105.196 114.1 103.956 115.22 101.616 115.22ZM98.4164 109.68H104.436C104.356 107.74 103.476 106.62 101.536 106.62C99.7164 106.62 98.5964 107.66 98.4164 109.68ZM116.478 115.2C113.178 115.2 111.018 113.14 111.018 109.14C111.018 105.34 112.958 102.78 116.758 102.78C119.858 102.78 121.578 104.44 122.058 107.16L120.698 107.46C120.198 105.16 118.958 104.08 116.778 104.08C113.678 104.08 112.478 106.1 112.478 109.14C112.478 112.1 113.798 113.94 116.858 113.94C119.978 113.94 120.818 112.24 120.818 110.42L120.838 110.46L120.818 110.24H116.818V108.98H122.198V115H120.838V112.26H120.698C120.138 113.86 118.878 115.2 116.478 115.2ZM132.731 115H126.111H124.651V103H132.731V104.3H126.111V108.24H132.031V109.52H126.111V113.7H132.731V115ZM140.357 115.22C136.557 115.22 134.457 112.66 134.457 108.98C134.457 105.3 136.597 102.78 140.357 102.78C144.117 102.78 146.257 105.3 146.257 108.98C146.257 112.66 144.157 115.22 140.357 115.22ZM140.357 113.94C143.397 113.94 144.817 111.9 144.817 108.98C144.817 106.08 143.397 104.08 140.357 104.08C137.357 104.08 135.897 106.08 135.897 108.98C135.897 111.9 137.317 113.94 140.357 113.94ZM156.206 115.22C153.326 115.22 151.606 113.42 151.606 110.38C151.606 107.32 153.426 105.48 156.166 105.48C158.906 105.48 160.306 107.2 160.306 109.76C160.306 110 160.326 110.36 160.266 110.74H152.986C153.086 112.82 154.206 114.04 156.206 114.04C158.046 114.04 158.706 113.08 159.026 111.9L160.246 112.26C159.786 114.1 158.546 115.22 156.206 115.22ZM153.006 109.68H159.026C158.946 107.74 158.066 106.62 156.126 106.62C154.306 106.62 153.186 107.66 153.006 109.68ZM163.703 105.7V108.1H163.863C164.363 106.5 165.623 105.48 167.303 105.48C169.483 105.48 170.443 106.9 170.443 108.92V115H169.063V109.22C169.063 107.8 168.503 106.74 166.823 106.74C164.963 106.74 163.723 107.9 163.723 109.64V115H162.343V105.7H163.703ZM185.633 110.36C185.633 113.5 184.233 115.22 181.973 115.22C180.053 115.22 178.893 114.06 178.433 112.46H178.333V118.06H176.953V105.7H178.333V108.2H178.453C178.913 106.62 179.973 105.48 181.873 105.48C184.293 105.48 185.633 107.24 185.633 110.36ZM178.333 110.02V110.72C178.333 112.66 179.533 114 181.393 114C183.293 114 184.253 112.78 184.253 110.36C184.253 107.9 183.333 106.74 181.393 106.74C179.533 106.74 178.333 108 178.333 110.02ZM187.776 102.16H189.136V115H187.776V102.16ZM198.534 115V112.6H198.374C197.894 114.2 196.614 115.22 194.934 115.22C192.754 115.22 191.794 113.84 191.794 111.78V105.7H193.174V111.5C193.174 112.88 193.734 113.96 195.414 113.96C197.274 113.96 198.514 112.82 198.514 111.06V105.7H199.894V115H198.534ZM206.039 115.24C203.259 115.24 202.179 114.04 201.779 112.12L203.059 111.86C203.379 113.14 204.099 114.12 206.059 114.12C207.539 114.12 208.279 113.6 208.279 112.54C208.279 111.56 207.559 111.16 205.539 110.82C203.159 110.42 202.279 109.56 202.279 108.12C202.279 106.54 203.439 105.48 205.699 105.48C208.059 105.48 208.899 106.54 209.339 108.2L208.059 108.5C207.719 107.08 206.979 106.58 205.679 106.58C204.319 106.58 203.619 107.12 203.619 108.06C203.619 108.88 204.179 109.44 206.079 109.74C208.639 110.16 209.639 111 209.639 112.5C209.639 114.12 208.579 115.24 206.039 115.24ZM216.926 105.7V108.1H217.086C217.586 106.48 218.806 105.48 220.546 105.48C222.406 105.48 223.366 106.58 223.546 108.26H223.726C224.146 106.58 225.246 105.48 227.226 105.48C229.386 105.48 230.386 106.9 230.386 108.92V115H229.006V109.22C229.006 107.8 228.386 106.74 226.766 106.74C224.866 106.74 223.666 107.9 223.666 109.64V115H222.286V109.22C222.286 107.8 221.666 106.74 220.046 106.74C218.186 106.74 216.946 107.9 216.946 109.64V115H215.566V105.7H216.926ZM236.909 115.22C233.969 115.22 232.309 113.34 232.309 110.32C232.309 107.28 234.129 105.48 236.909 105.48C239.649 105.48 241.509 107.3 241.509 110.32C241.509 113.34 239.849 115.22 236.909 115.22ZM236.909 106.7C234.829 106.7 233.689 108.06 233.689 110.3C233.689 112.54 234.729 114 236.889 114C239.049 114 240.129 112.54 240.129 110.3C240.129 108.06 238.989 106.7 236.909 106.7ZM247.035 115.24C244.255 115.24 243.175 114.04 242.775 112.12L244.055 111.86C244.375 113.14 245.095 114.12 247.055 114.12C248.535 114.12 249.275 113.6 249.275 112.54C249.275 111.56 248.555 111.16 246.535 110.82C244.155 110.42 243.275 109.56 243.275 108.12C243.275 106.54 244.435 105.48 246.695 105.48C249.055 105.48 249.895 106.54 250.335 108.2L249.055 108.5C248.715 107.08 247.975 106.58 246.675 106.58C245.315 106.58 244.615 107.12 244.615 108.06C244.615 108.88 245.175 109.44 247.075 109.74C249.635 110.16 250.635 111 250.635 112.5C250.635 114.12 249.575 115.24 247.035 115.24ZM253.977 102.16V108.1H254.117C254.617 106.5 255.837 105.48 257.597 105.48C259.737 105.48 260.697 106.9 260.697 108.92V115H259.317V109.22C259.317 107.8 258.717 106.74 257.097 106.74C255.237 106.74 253.977 107.9 253.977 109.64V115H252.597V102.16H253.977Z" fill="#1A1A1A"/>
<rect x="20" y="97" width="64" height="26" fill="url(#paint0_linear_42_740)"/>
<path d="M84.399 124.594C81.2228 120.452 79.3503 115.376 79.3503 109.893C79.3503 104.409 81.2282 99.3339 84.399 95.192H80.6595C77.1774 99.3661 75.1279 104.431 75.1279 109.893C75.1279 115.355 77.1774 120.414 80.6595 124.594H84.399Z" fill="#1A1A1A"/>
<path d="M46.2629 109.989C46.2629 100.316 52.0144 94.4998 60.1428 94.4998C68.2711 94.4998 72.6921 99.9348 72.6921 108.031C72.6921 108.787 72.7565 109.93 72.5633 111.127H50.6248C50.9414 117.699 54.4824 121.557 60.2662 121.557C65.5456 121.557 67.6327 118.52 68.6413 114.791L72.4989 115.929C71.0449 121.745 67.123 125.286 60.2662 125.286C51.6979 125.286 46.2629 119.598 46.2629 109.989ZM68.6413 107.779C68.3892 101.646 65.6046 98.1053 60.014 98.1053C54.8097 98.1053 51.2579 101.394 50.6892 107.779H68.6467H68.6413Z" fill="#1A1A1A"/>
<path d="M42.8238 98.792H43.8914V95.1866H32.4581C24.6141 95.1919 20 98.792 20 105.434C20 109.732 22.2749 112.892 26.3846 114.346C26.3846 114.346 24.8341 115.558 23.6376 116.497C22.4358 117.436 21.395 118.649 21.395 120.103C21.395 122.19 22.7202 123.327 24.6839 123.767V124.084C22.1354 124.626 20.0054 126.804 20.0054 129.395C20.0054 133.376 23.7342 135.78 32.4581 135.78C41.182 135.78 45.4152 133.124 45.4152 127.56C45.4152 123.199 42.3784 120.672 36.5625 120.672C33.7404 120.672 32.0772 120.72 29.5448 120.731C29.4536 120.731 25.0219 120.709 24.6892 119.083C24.5068 118.204 25.3384 117.313 26.0359 116.449C26.4759 115.907 27.0285 115.188 27.4523 114.641C28.799 115 30.2959 115.167 31.9538 115.167C40.0446 115.167 44.2187 111.942 44.2187 106.191C44.2187 101.7 40.8064 99.7417 36.5679 98.9208L36.6323 98.4165C39.3524 98.6686 41.2464 98.7974 42.8291 98.7974L42.8238 98.792ZM36.6269 124.084C40.168 124.084 41.6863 125.667 41.6863 127.689C41.6863 130.785 39.5778 132.303 32.5815 132.303C26.272 132.303 23.7288 131.102 23.7288 128.194C23.7288 126.235 25.1399 124.084 29.1853 124.084H36.6215H36.6269ZM40.2914 105.37C40.2914 109.603 37.7643 111.819 32.0074 111.819C26.2505 111.819 24.04 109.48 24.04 105.37C24.04 101.26 26.4437 98.8564 31.943 98.8564C37.4424 98.8564 40.286 101.324 40.286 105.37H40.2914Z" fill="#1A1A1A"/>
<path d="M281.206 115.489L285.252 114.668C286.266 118.713 288.541 121.814 294.737 121.814C299.416 121.814 301.755 120.044 301.755 116.819C301.755 113.595 299.545 112.457 293.09 111.379C285.627 110.113 282.784 107.398 282.784 102.843C282.784 97.9121 286.454 94.4944 293.595 94.4944C300.736 94.4944 303.773 97.8477 305.103 103.095L301.058 104.045C299.985 99.5539 297.645 97.9765 293.536 97.9765C289.426 97.9765 287.022 99.6826 287.022 102.655C287.022 105.246 288.857 107.017 294.802 107.967C302.893 109.292 306.058 111.948 306.058 116.69C306.058 121.814 302.646 125.355 294.678 125.355C285.89 125.355 282.537 121.498 281.212 115.494L281.206 115.489Z" fill="#1A1A1A"/>
<path d="M313.264 124.593H308.902V84H313.264V102.778H313.709C315.292 97.7833 319.144 94.4944 324.713 94.4944C331.414 94.4944 334.515 98.9208 334.515 105.37V124.593H330.153V106.319C330.153 101.893 328.254 98.4808 323.136 98.4808C317.191 98.4808 313.274 102.151 313.274 107.65V124.593H313.264Z" fill="#1A1A1A"/>
<path d="M273.851 95.192H270.111C273.287 99.3339 275.16 104.409 275.16 109.893C275.16 115.376 273.282 120.452 270.111 124.594H273.851C277.333 120.419 279.382 115.355 279.382 109.893C279.382 104.431 277.333 99.3715 273.851 95.192Z" fill="#1A1A1A"/>
<path d="M93.5181 38.16H94.8781V51H93.5181V38.16ZM101.616 51.22C98.7364 51.22 97.0164 49.42 97.0164 46.38C97.0164 43.32 98.8364 41.48 101.576 41.48C104.316 41.48 105.716 43.2 105.716 45.76C105.716 46 105.736 46.36 105.676 46.74H98.3964C98.4964 48.82 99.6164 50.04 101.616 50.04C103.456 50.04 104.116 49.08 104.436 47.9L105.656 48.26C105.196 50.1 103.956 51.22 101.616 51.22ZM98.4164 45.68H104.436C104.356 43.74 103.476 42.62 101.536 42.62C99.7164 42.62 98.5964 43.66 98.4164 45.68ZM116.478 51.2C113.178 51.2 111.018 49.14 111.018 45.14C111.018 41.34 112.958 38.78 116.758 38.78C119.858 38.78 121.578 40.44 122.058 43.16L120.698 43.46C120.198 41.16 118.958 40.08 116.778 40.08C113.678 40.08 112.478 42.1 112.478 45.14C112.478 48.1 113.798 49.94 116.858 49.94C119.978 49.94 120.818 48.24 120.818 46.42L120.838 46.46L120.818 46.24H116.818V44.98H122.198V51H120.838V48.26H120.698C120.138 49.86 118.878 51.2 116.478 51.2ZM132.731 51H126.111H124.651V39H132.731V40.3H126.111V44.24H132.031V45.52H126.111V49.7H132.731V51ZM140.357 51.22C136.557 51.22 134.457 48.66 134.457 44.98C134.457 41.3 136.597 38.78 140.357 38.78C144.117 38.78 146.257 41.3 146.257 44.98C146.257 48.66 144.157 51.22 140.357 51.22ZM140.357 49.94C143.397 49.94 144.817 47.9 144.817 44.98C144.817 42.08 143.397 40.08 140.357 40.08C137.357 40.08 135.897 42.08 135.897 44.98C135.897 47.9 137.317 49.94 140.357 49.94ZM156.206 51.22C153.326 51.22 151.606 49.42 151.606 46.38C151.606 43.32 153.426 41.48 156.166 41.48C158.906 41.48 160.306 43.2 160.306 45.76C160.306 46 160.326 46.36 160.266 46.74H152.986C153.086 48.82 154.206 50.04 156.206 50.04C158.046 50.04 158.706 49.08 159.026 47.9L160.246 48.26C159.786 50.1 158.546 51.22 156.206 51.22ZM153.006 45.68H159.026C158.946 43.74 158.066 42.62 156.126 42.62C154.306 42.62 153.186 43.66 153.006 45.68ZM163.703 41.7V44.1H163.863C164.363 42.5 165.623 41.48 167.303 41.48C169.483 41.48 170.443 42.9 170.443 44.92V51H169.063V45.22C169.063 43.8 168.503 42.74 166.823 42.74C164.963 42.74 163.723 43.9 163.723 45.64V51H162.343V41.7H163.703ZM185.633 46.36C185.633 49.5 184.233 51.22 181.973 51.22C180.053 51.22 178.893 50.06 178.433 48.46H178.333V54.06H176.953V41.7H178.333V44.2H178.453C178.913 42.62 179.973 41.48 181.873 41.48C184.293 41.48 185.633 43.24 185.633 46.36ZM178.333 46.02V46.72C178.333 48.66 179.533 50 181.393 50C183.293 50 184.253 48.78 184.253 46.36C184.253 43.9 183.333 42.74 181.393 42.74C179.533 42.74 178.333 44 178.333 46.02ZM187.776 38.16H189.136V51H187.776V38.16ZM198.534 51V48.6H198.374C197.894 50.2 196.614 51.22 194.934 51.22C192.754 51.22 191.794 49.84 191.794 47.78V41.7H193.174V47.5C193.174 48.88 193.734 49.96 195.414 49.96C197.274 49.96 198.514 48.82 198.514 47.06V41.7H199.894V51H198.534ZM206.039 51.24C203.259 51.24 202.179 50.04 201.779 48.12L203.059 47.86C203.379 49.14 204.099 50.12 206.059 50.12C207.539 50.12 208.279 49.6 208.279 48.54C208.279 47.56 207.559 47.16 205.539 46.82C203.159 46.42 202.279 45.56 202.279 44.12C202.279 42.54 203.439 41.48 205.699 41.48C208.059 41.48 208.899 42.54 209.339 44.2L208.059 44.5C207.719 43.08 206.979 42.58 205.679 42.58C204.319 42.58 203.619 43.12 203.619 44.06C203.619 44.88 204.179 45.44 206.079 45.74C208.639 46.16 209.639 47 209.639 48.5C209.639 50.12 208.579 51.24 206.039 51.24ZM216.926 41.7V44.1H217.086C217.586 42.48 218.806 41.48 220.546 41.48C222.406 41.48 223.366 42.58 223.546 44.26H223.726C224.146 42.58 225.246 41.48 227.226 41.48C229.386 41.48 230.386 42.9 230.386 44.92V51H229.006V45.22C229.006 43.8 228.386 42.74 226.766 42.74C224.866 42.74 223.666 43.9 223.666 45.64V51H222.286V45.22C222.286 43.8 221.666 42.74 220.046 42.74C218.186 42.74 216.946 43.9 216.946 45.64V51H215.566V41.7H216.926ZM236.909 51.22C233.969 51.22 232.309 49.34 232.309 46.32C232.309 43.28 234.129 41.48 236.909 41.48C239.649 41.48 241.509 43.3 241.509 46.32C241.509 49.34 239.849 51.22 236.909 51.22ZM236.909 42.7C234.829 42.7 233.689 44.06 233.689 46.3C233.689 48.54 234.729 50 236.889 50C239.049 50 240.129 48.54 240.129 46.3C240.129 44.06 238.989 42.7 236.909 42.7ZM247.035 51.24C244.255 51.24 243.175 50.04 242.775 48.12L244.055 47.86C244.375 49.14 245.095 50.12 247.055 50.12C248.535 50.12 249.275 49.6 249.275 48.54C249.275 47.56 248.555 47.16 246.535 46.82C244.155 46.42 243.275 45.56 243.275 44.12C243.275 42.54 244.435 41.48 246.695 41.48C249.055 41.48 249.895 42.54 250.335 44.2L249.055 44.5C248.715 43.08 247.975 42.58 246.675 42.58C245.315 42.58 244.615 43.12 244.615 44.06C244.615 44.88 245.175 45.44 247.075 45.74C249.635 46.16 250.635 47 250.635 48.5C250.635 50.12 249.575 51.24 247.035 51.24ZM253.977 38.16V44.1H254.117C254.617 42.5 255.837 41.48 257.597 41.48C259.737 41.48 260.697 42.9 260.697 44.92V51H259.317V45.22C259.317 43.8 258.717 42.74 257.097 42.74C255.237 42.74 253.977 43.9 253.977 45.64V51H252.597V38.16H253.977Z" fill="#1A1A1A"/>
<rect x="20" y="33" width="259" height="26" fill="url(#paint1_linear_42_740)"/>
<path d="M237.399 60.5935C234.223 56.4516 232.35 51.376 232.35 45.8927C232.35 40.4095 234.228 35.3339 237.399 31.192H233.659C230.177 35.3661 228.128 40.4309 228.128 45.8927C228.128 51.3546 230.177 56.414 233.659 60.5935H237.399Z" fill="#1A1A1A"/>
<path d="M199.263 45.9893C199.263 36.3157 205.014 30.4998 213.143 30.4998C221.271 30.4998 225.692 35.9348 225.692 44.031C225.692 44.7875 225.756 45.9303 225.563 47.1267H203.625C203.941 53.6992 207.482 57.5568 213.266 57.5568C218.546 57.5568 220.633 54.52 221.641 50.7912L225.499 51.9286C224.045 57.7446 220.123 61.2856 213.266 61.2856C204.698 61.2856 199.263 55.5985 199.263 45.9893ZM221.641 43.7788C221.389 37.6463 218.605 34.1053 213.014 34.1053C207.81 34.1053 204.258 37.3942 203.689 43.7788H221.647H221.641Z" fill="#1A1A1A"/>
<path d="M195.824 34.792H196.891V31.1866H185.458C177.614 31.1919 173 34.792 173 41.4342C173 45.7318 175.275 48.8919 179.385 50.3459C179.385 50.3459 177.834 51.5584 176.638 52.4974C175.436 53.4363 174.395 54.6488 174.395 56.1028C174.395 58.1899 175.72 59.3273 177.684 59.7673V60.0838C175.135 60.6257 173.005 62.804 173.005 65.3954C173.005 69.3764 176.734 71.7801 185.458 71.7801C194.182 71.7801 198.415 69.1243 198.415 63.5605C198.415 59.1986 195.378 56.6715 189.563 56.6715C186.74 56.6715 185.077 56.7198 182.545 56.7305C182.454 56.7305 178.022 56.7091 177.689 55.0834C177.507 54.2035 178.338 53.3129 179.036 52.4491C179.476 51.9072 180.028 51.1882 180.452 50.641C181.799 51.0005 183.296 51.1668 184.954 51.1668C193.045 51.1668 197.219 47.9423 197.219 42.1907C197.219 37.7 193.806 35.7417 189.568 34.9208L189.632 34.4165C192.352 34.6686 194.246 34.7974 195.829 34.7974L195.824 34.792ZM189.627 60.0838C193.168 60.0838 194.686 61.6666 194.686 63.6893C194.686 66.785 192.578 68.3034 185.582 68.3034C179.272 68.3034 176.729 67.1016 176.729 64.1936C176.729 62.2353 178.14 60.0838 182.185 60.0838H189.622H189.627ZM193.291 41.3698C193.291 45.603 190.764 47.8189 185.007 47.8189C179.251 47.8189 177.04 45.4796 177.04 41.3698C177.04 37.26 179.444 34.8564 184.943 34.8564C190.442 34.8564 193.286 37.3244 193.286 41.3698H193.291Z" fill="#1A1A1A"/>
<path d="M281.206 51.4887L285.252 50.6678C286.266 54.7132 288.541 57.8143 294.737 57.8143C299.416 57.8143 301.755 56.0438 301.755 52.8193C301.755 49.5947 299.545 48.4573 293.09 47.3789C285.627 46.1127 282.784 43.3979 282.784 38.8428C282.784 33.9121 286.454 30.4944 293.595 30.4944C300.736 30.4944 303.773 33.8477 305.103 39.0949L301.058 40.0446C299.985 35.5539 297.645 33.9765 293.536 33.9765C289.426 33.9765 287.022 35.6826 287.022 38.655C287.022 41.2464 288.857 43.0169 294.802 43.9666C302.893 45.2918 306.058 47.9476 306.058 52.6905C306.058 57.8143 302.646 61.3554 294.678 61.3554C285.89 61.3554 282.537 57.4977 281.212 51.494L281.206 51.4887Z" fill="#1A1A1A"/>
<path d="M313.264 60.5935H308.902V20H313.264V38.7784H313.709C315.292 33.7833 319.144 30.4944 324.713 30.4944C331.414 30.4944 334.515 34.9208 334.515 41.3698V60.5935H330.153V42.3194C330.153 37.8931 328.254 34.4808 323.136 34.4808C317.191 34.4808 313.274 38.1506 313.274 43.65V60.5935H313.264Z" fill="#1A1A1A"/>
<path d="M273.851 31.192H270.111C273.287 35.3339 275.16 40.4095 275.16 45.8927C275.16 51.376 273.282 56.4516 270.111 60.5935H273.851C277.333 56.4194 279.382 51.3546 279.382 45.8927C279.382 40.4309 277.333 35.3715 273.851 31.192Z" fill="#1A1A1A"/>
<defs>
<linearGradient id="paint0_linear_42_740" x1="66.5882" y1="110" x2="84" y2="110" gradientUnits="userSpaceOnUse">
<stop offset="0.801315" stop-color="#FDFDFD"/>
<stop offset="1" stop-color="#FDFDFD" stop-opacity="0"/>
</linearGradient>
<linearGradient id="paint1_linear_42_740" x1="208.537" y1="46" x2="279" y2="46" gradientUnits="userSpaceOnUse">
<stop offset="0.801315" stop-color="#FDFDFD"/>
<stop offset="1" stop-color="#FDFDFD" stop-opacity="0"/>
</linearGradient>
</defs>
</svg>
