<svg width="80" height="21" viewBox="0 0 80 21" fill="none" xmlns="http://www.w3.org/2000/svg">
<path d="M53.6279 15.5775L55.6292 15.1714C56.1308 17.1727 57.2562 18.7068 60.3218 18.7068C62.6362 18.7068 63.7935 17.8309 63.7935 16.2357C63.7935 14.6406 62.6999 14.0779 59.5069 13.5444C55.815 12.918 54.4082 11.575 54.4082 9.32157C54.4082 6.88237 56.2237 5.19165 59.7564 5.19165C63.2892 5.19165 64.7914 6.85052 65.4497 9.44632L63.4484 9.91611C62.9176 7.69455 61.7603 6.91422 59.7272 6.91422C57.6941 6.91422 56.505 7.75825 56.505 9.22867C56.505 10.5106 57.4128 11.3865 60.3536 11.8563C64.3561 12.5119 65.9221 13.8257 65.9221 16.172C65.9221 18.7068 64.234 20.4586 60.2926 20.4586C55.945 20.4586 54.2861 18.5502 53.6306 15.5802L53.6279 15.5775Z" fill="#1A1A1A"/>
<path d="M69.4867 20.0816H67.3289V0H69.4867V9.28967H69.707C70.49 6.81861 72.3957 5.1916 75.1508 5.1916C78.4658 5.1916 80 7.3813 80 10.5716V20.0816H77.8421V11.0414C77.8421 8.85172 76.9025 7.16366 74.3704 7.16366C71.4296 7.16366 69.492 8.97913 69.492 11.6997V20.0816H69.4867Z" fill="#1A1A1A"/>
<path d="M49.989 5.53662H48.139C49.7103 7.58566 50.6366 10.0965 50.6366 12.8091C50.6366 15.5217 49.7076 18.0325 48.139 20.0816H49.989C51.7115 18.0166 52.7254 15.5111 52.7254 12.8091C52.7254 10.1071 51.7115 7.60424 49.989 5.53662Z" fill="#1A1A1A"/>
<path d="M31.8583 20.0816C30.287 18.0326 29.3607 15.5217 29.3607 12.8092C29.3607 10.0966 30.2896 7.58572 31.8583 5.53668H30.0083C28.2857 7.60164 27.2718 10.1072 27.2718 12.8092C27.2718 15.5111 28.2857 18.014 30.0083 20.0816H31.8583Z" fill="#1A1A1A"/>
<path d="M20.002 5.19165C16.6205 5.19165 14.6883 6.91157 13.9637 9.53921H13.7991C13.4514 6.91953 11.7103 5.19165 8.38194 5.19165C5.05358 5.19165 3.16114 6.80274 2.37816 9.28972H2.12866V5.5367H0V20.0817H2.15786V11.6997C2.15786 8.97918 4.3051 7.16371 7.70246 7.16371C10.6008 7.16371 11.7103 8.85178 11.7103 11.0415V20.0817H13.8681V11.6997C13.8681 8.97918 15.9862 7.16371 19.3411 7.16371C22.1997 7.16371 23.2958 8.85178 23.2958 11.0415V20.0817H25.4537V10.5717C25.4537 7.38136 23.7285 5.19165 20.002 5.19165Z" fill="#1A1A1A"/>
</svg>
