<svg width="375" height="67" viewBox="0 0 375 67" fill="none" xmlns="http://www.w3.org/2000/svg">
<rect width="375" height="67" fill="#FDFDFD"/>
<path d="M105.11 24.4929V38.1834H103.659V24.4929H105.11Z" fill="#1A1A1A"/>
<path d="M106.863 33.2532C106.863 29.9939 108.802 28.0273 111.725 28.0273C114.647 28.0273 116.139 29.8632 116.139 32.593C116.139 32.8475 116.16 33.2325 116.098 33.6382H108.335C108.438 35.8523 109.634 37.1588 111.766 37.1588C113.726 37.1588 114.434 36.1343 114.771 34.8759L116.07 35.261C115.582 37.2207 114.255 38.4172 111.766 38.4172C108.699 38.4172 106.863 36.4987 106.863 33.26V33.2532ZM114.771 32.5105C114.688 30.4408 113.746 29.2512 111.677 29.2512C109.737 29.2512 108.541 30.3583 108.349 32.5105H114.764H114.771Z" fill="#1A1A1A"/>
<path d="M120.712 31.9329C120.712 27.8829 122.782 25.153 126.832 25.153C130.139 25.153 131.968 26.9202 132.484 29.8219L131.033 30.1451C130.497 27.6903 129.176 26.542 126.852 26.542C123.545 26.542 122.266 28.6942 122.266 31.9329C122.266 35.1716 123.675 37.0488 126.935 37.0488C130.194 37.0488 131.157 35.2335 131.157 33.2944L131.177 33.3357L131.157 33.1019H126.893V31.761H132.628V38.1765H131.177V35.2541H131.026C130.428 36.9594 129.087 38.3896 126.529 38.3896C123.008 38.3896 120.712 36.1961 120.712 31.9329Z" fill="#1A1A1A"/>
<path d="M136.279 38.1834H134.725V25.3937H143.341V26.7827H136.286V30.984H142.599V32.3455H136.286V36.8012H143.341V38.1902H136.286L136.279 38.1834Z" fill="#1A1A1A"/>
<path d="M144.634 31.761C144.634 27.8347 146.917 25.153 150.926 25.153C154.934 25.153 157.217 27.8416 157.217 31.761C157.217 35.6804 154.976 38.4103 150.926 38.4103C146.876 38.4103 144.634 35.6804 144.634 31.761ZM155.677 31.761C155.677 28.6667 154.164 26.5351 150.926 26.5351C147.687 26.5351 146.167 28.6667 146.167 31.761C146.167 34.8553 147.68 37.0488 150.926 37.0488C154.171 37.0488 155.677 34.8759 155.677 31.761Z" fill="#1A1A1A"/>
<path d="M161.831 33.2532C161.831 29.9939 163.77 28.0273 166.693 28.0273C169.615 28.0273 171.107 29.8632 171.107 32.593C171.107 32.8475 171.128 33.2325 171.066 33.6382H163.303C163.413 35.8523 164.602 37.1588 166.734 37.1588C168.694 37.1588 169.402 36.1343 169.739 34.8759L171.038 35.261C170.55 37.2207 169.23 38.4172 166.734 38.4172C163.667 38.4172 161.831 36.4987 161.831 33.26V33.2532ZM169.746 32.5105C169.663 30.4408 168.721 29.2512 166.651 29.2512C164.712 29.2512 163.516 30.3583 163.323 32.5105H169.739H169.746Z" fill="#1A1A1A"/>
<path d="M174.195 30.8259H174.366C174.903 29.1206 176.244 28.0341 178.031 28.0341C180.356 28.0341 181.38 29.5469 181.38 31.6991V38.1833H179.909V32.0223C179.909 30.5095 179.31 29.3819 177.523 29.3819C175.542 29.3819 174.215 30.6196 174.215 32.4761V38.1902H172.744V28.2748H174.195V30.8327V30.8259Z" fill="#1A1A1A"/>
<path d="M192.595 38.4171C190.546 38.4171 189.308 37.1794 188.82 35.4741H188.717V41.4426H187.246V28.2679H188.717V30.9359H188.848C189.336 29.2512 190.47 28.0341 192.492 28.0341C195.071 28.0341 196.501 29.9113 196.501 33.2394C196.501 36.5674 195.009 38.4171 192.602 38.4171H192.595ZM188.717 33.6176C188.717 35.6873 189.996 37.1107 191.976 37.1107C193.957 37.1107 195.022 35.8111 195.022 33.2325C195.022 30.6539 194.039 29.375 191.976 29.375C189.913 29.375 188.717 30.7158 188.717 32.8681V33.6107V33.6176Z" fill="#1A1A1A"/>
<path d="M199.691 24.4929V38.1834H198.241V24.4929H199.691Z" fill="#1A1A1A"/>
<path d="M209.174 35.6254H209.002C208.493 37.3307 207.125 38.4172 205.337 38.4172C203.013 38.4172 201.988 36.9457 201.988 34.7522V28.2679H203.46V34.4496C203.46 35.9211 204.058 37.0694 205.846 37.0694C207.826 37.0694 209.146 35.8523 209.146 33.9752V28.2611H210.618V38.1765H209.167V35.6186L209.174 35.6254Z" fill="#1A1A1A"/>
<path d="M212.096 35.1097L213.458 34.8347C213.801 36.1962 214.565 37.2413 216.655 37.2413C218.23 37.2413 219.02 36.6844 219.02 35.5567C219.02 34.5115 218.25 34.0852 216.098 33.7207C213.561 33.2944 212.625 32.3799 212.625 30.8396C212.625 29.155 213.863 28.0273 216.27 28.0273C218.677 28.0273 219.68 29.155 220.148 30.929L218.787 31.2522C218.422 29.7394 217.638 29.2031 216.249 29.2031C214.86 29.2031 214.056 29.7807 214.056 30.7777C214.056 31.651 214.654 32.2492 216.676 32.5655C219.405 33.0125 220.471 33.9064 220.471 35.5085C220.471 37.2345 219.344 38.4309 216.634 38.4309C213.671 38.4309 212.522 37.1519 212.096 35.1028V35.1097Z" fill="#1A1A1A"/>
<path d="M227.169 30.8259H227.341C227.877 29.0999 229.176 28.0341 231.033 28.0341C233.013 28.0341 234.038 29.21 234.23 30.9978H234.423C234.87 29.21 236.046 28.0341 238.157 28.0341C240.46 28.0341 241.526 29.5469 241.526 31.6991V38.1833H240.055V32.0223C240.055 30.5095 239.394 29.3819 237.669 29.3819C235.64 29.3819 234.361 30.6196 234.361 32.4761V38.1902H232.89V32.0292C232.89 30.5164 232.229 29.3887 230.504 29.3887C228.523 29.3887 227.196 30.6264 227.196 32.483V38.1971H225.725V28.2817H227.175V30.8396L227.169 30.8259Z" fill="#1A1A1A"/>
<path d="M243.025 33.1913C243.025 29.9526 244.964 28.0341 247.928 28.0341C250.891 28.0341 252.83 29.9732 252.83 33.1913C252.83 36.4093 251.063 38.4171 247.928 38.4171C244.792 38.4171 243.025 36.4093 243.025 33.1913ZM244.497 33.1706C244.497 35.5567 245.604 37.1175 247.907 37.1175C250.211 37.1175 251.359 35.5635 251.359 33.1706C251.359 30.7777 250.142 29.3337 247.928 29.3337C245.714 29.3337 244.497 30.7846 244.497 33.1706Z" fill="#1A1A1A"/>
<path d="M253.642 35.1097L255.003 34.8347C255.347 36.1962 256.11 37.2413 258.201 37.2413C259.775 37.2413 260.566 36.6844 260.566 35.5567C260.566 34.5115 259.796 34.0852 257.644 33.7207C255.106 33.2944 254.171 32.3799 254.171 30.8396C254.171 29.155 255.409 28.0273 257.816 28.0273C260.222 28.0273 261.226 29.155 261.694 30.929L260.332 31.2522C259.968 29.7394 259.184 29.2031 257.795 29.2031C256.406 29.2031 255.601 29.7807 255.601 30.7777C255.601 31.651 256.2 32.2492 258.221 32.5655C260.951 33.0125 262.017 33.9064 262.017 35.5085C262.017 37.2345 260.889 38.4309 258.18 38.4309C255.216 38.4309 254.068 37.1519 253.642 35.1028V35.1097Z" fill="#1A1A1A"/>
<path d="M265.042 30.8259H265.194C265.73 29.1206 267.03 28.0341 268.9 28.0341C271.183 28.0341 272.207 29.5469 272.207 31.6991V38.1834H270.736V32.0223C270.736 30.5096 270.096 29.3819 268.371 29.3819C266.39 29.3819 265.042 30.6196 265.042 32.4761V38.1902H263.571V24.4998H265.042V30.8327V30.8259Z" fill="#1A1A1A"/>
<path d="M291.142 14.4399H188V52.2588H291.142V14.4399Z" fill="#FDFDFD"/>
<path d="M222.855 40.3562L228.04 39.3041C229.339 44.4888 232.255 48.4632 240.197 48.4632C246.193 48.4632 249.191 46.1941 249.191 42.0615C249.191 37.9289 246.358 36.4712 238.086 35.0891C228.521 33.4663 224.877 29.9869 224.877 24.1491C224.877 17.8299 229.58 13.4498 238.732 13.4498C247.884 13.4498 251.776 17.7474 253.482 24.4723L248.297 25.6893C246.922 19.934 243.924 17.9124 238.657 17.9124C233.39 17.9124 230.309 20.099 230.309 23.9084C230.309 27.2296 232.661 29.4987 240.279 30.7158C250.649 32.4142 254.706 35.8179 254.706 41.8965C254.706 48.4632 250.332 53.0015 240.121 53.0015C228.858 53.0015 224.561 48.0575 222.862 40.3631L222.855 40.3562Z" fill="#1A1A1A"/>
<path d="M263.933 52.0251H258.343V0H263.933V24.0666H264.504C266.533 17.6649 271.47 13.4498 278.607 13.4498C287.196 13.4498 291.17 19.1226 291.17 27.3878V52.0251H285.58V28.6048C285.58 22.932 283.145 18.5588 276.586 18.5588C268.967 18.5588 263.947 23.2621 263.947 30.3101V52.0251H263.933Z" fill="#1A1A1A"/>
<path d="M213.421 14.3437H208.628C212.699 19.6521 215.099 26.1569 215.099 33.1844C215.099 40.2118 212.692 46.7167 208.628 52.0251H213.421C217.884 46.6754 220.51 40.1843 220.51 33.1844C220.51 26.1844 217.884 19.7002 213.421 14.3437Z" fill="#1A1A1A"/>
<path d="M188.13 14.4399H84.3V52.2588H188.13V14.4399Z" fill="#FDFDFD"/>
<path d="M166.835 52.3207C162.764 47.0123 160.364 40.5075 160.364 33.4801C160.364 26.4526 162.771 19.9478 166.835 14.6394H162.042C157.579 19.989 154.953 26.4801 154.953 33.4801C154.953 40.48 157.579 46.9642 162.042 52.3207H166.835Z" fill="#1A1A1A"/>
<path d="M117.959 33.6038C117.959 21.2061 125.33 13.7523 135.747 13.7523C146.165 13.7523 151.831 20.7179 151.831 31.094C151.831 32.0635 151.913 33.5282 151.666 35.0616H123.549C123.955 43.4849 128.493 48.4288 135.906 48.4288C142.672 48.4288 145.347 44.5369 146.639 39.758L151.583 41.2157C149.72 48.6695 144.693 53.2077 135.906 53.2077C124.924 53.2077 117.959 45.919 117.959 33.6038ZM146.639 30.7708C146.316 22.9114 142.747 18.3731 135.582 18.3731C128.913 18.3731 124.361 22.5882 123.632 30.7708H146.646H146.639Z" fill="#1A1A1A"/>
<path d="M113.544 19.2601H114.913V14.6394H100.26C90.2135 14.6394 84.3 19.2601 84.3 27.766C84.3 33.2738 87.2155 37.3238 92.4826 39.1873C92.4826 39.1873 90.4954 40.7413 88.962 41.9446C87.4218 43.1479 86.0878 44.702 86.0878 46.5654C86.0878 49.2402 87.7862 50.698 90.3029 51.2618V51.6675C87.0367 52.362 84.3069 55.1537 84.3069 58.4749C84.3069 63.577 89.0858 66.6575 100.266 66.6575C111.447 66.6575 116.872 63.2538 116.872 56.1233C116.872 50.5329 112.98 47.2943 105.527 47.2943C101.91 47.2943 99.7782 47.3561 96.5327 47.3699C96.4158 47.3699 90.7361 47.3424 90.3098 45.2589C90.076 44.1312 91.1418 42.9898 92.0357 41.8827C92.5995 41.1882 93.3078 40.2668 93.851 39.5655C95.5769 40.0262 97.4953 40.2393 99.6201 40.2393C109.989 40.2393 115.339 36.1067 115.339 28.7355C115.339 22.9801 110.966 20.4703 105.534 19.4183L105.616 18.7719C109.102 19.0951 111.53 19.2601 113.558 19.2601H113.544ZM105.609 51.6744C110.147 51.6744 112.093 53.7028 112.093 56.2952C112.093 60.2627 109.391 62.2087 100.425 62.2087C92.3382 62.2087 89.0789 60.6684 89.0789 56.9415C89.0789 54.4317 90.8874 51.6744 96.072 51.6744H105.602H105.609ZM110.306 27.6903C110.306 33.1156 107.067 35.9555 99.6888 35.9555C92.3107 35.9555 89.4777 32.9575 89.4777 27.6903C89.4777 22.4232 92.5583 19.3427 99.6063 19.3427C106.654 19.3427 110.299 22.5057 110.299 27.6903H110.306Z" fill="#1A1A1A"/>
</svg>
